<svg xmlns="http://www.w3.org/2000/svg" xmlns:xlink="http://www.w3.org/1999/xlink" width="30" height="22" viewBox="0 0 30 22"><defs><clipPath id="a"><rect width="30" height="22" transform="translate(0 -0.091)" fill="#111"/></clipPath></defs><g transform="translate(0 0.091)"><g clip-path="url(#a)"><path d="M2.521,6.325H7.163l1.273-.872L16.4,0V21.817L8.436,16.363l-1.273-.872H2.521a2.578,2.578,0,0,1-1.781-.705A2.338,2.338,0,0,1,0,13.092V8.725a2.34,2.34,0,0,1,.741-1.7l.051-.045a2.587,2.587,0,0,1,1.729-.66M19.108,7.631a.887.887,0,0,1,0-1.3,1,1,0,0,1,1.365,0,6.255,6.255,0,0,1,0,9.153,1,1,0,0,1-1.365,0,.887.887,0,0,1,0-1.3,4.482,4.482,0,0,0,0-6.555m2.664-2.536a.889.889,0,0,1,0-1.3,1,1,0,0,1,1.365,0,9.72,9.72,0,0,1,0,14.226,1,1,0,0,1-1.365,0,.888.888,0,0,1,0-1.3,7.946,7.946,0,0,0,0-11.628m2.665-2.537a.887.887,0,0,1,0-1.3,1,1,0,0,1,1.364,0,13.185,13.185,0,0,1,0,19.3,1,1,0,0,1-1.364,0,.887.887,0,0,1,0-1.3,11.414,11.414,0,0,0,0-16.7" transform="translate(0 0.001)" fill="#111" fill-rule="evenodd"/></g></g></svg>