<svg xmlns="http://www.w3.org/2000/svg" width="36" height="36" viewBox="0 0 36 36"><g transform="translate(38.017 8)"><circle cx="18" cy="18" r="18" transform="translate(-38.017 -8)" fill="#024097"/><path d="M57.773,46.649a8.364,8.364,0,0,1-1.7,1.864.725.725,0,0,0-.261.566v.065a11.881,11.881,0,0,1-.766,4.134,12.107,12.107,0,0,1-2.255,3.78,11.138,11.138,0,0,1-4.887,3.23,12.225,12.225,0,0,1-3.842.6,11.728,11.728,0,0,1-5.89-1.587.339.339,0,0,1-.163-.376.326.326,0,0,1,.318-.245h.5a7.882,7.882,0,0,0,4.416-1.34,4.28,4.28,0,0,1-3.389-2.909.224.224,0,0,1,.261-.289,3.931,3.931,0,0,0,.719.068h.091a4.283,4.283,0,0,1-2.494-3.939.224.224,0,0,1,.331-.2,3.764,3.764,0,0,0,.975.378,4.28,4.28,0,0,1-.691-5.192.224.224,0,0,1,.368-.031A11.19,11.19,0,0,0,47.1,49.339h.021a.162.162,0,0,0,.156-.175,4.525,4.525,0,0,1,.1-1.564,4.147,4.147,0,0,1,2.789-2.982,4.585,4.585,0,0,1,1.353-.209,4.264,4.264,0,0,1,2.826,1.066.553.553,0,0,0,.368.141.56.56,0,0,0,.13-.018,7.82,7.82,0,0,0,2.085-.863.222.222,0,0,1,.326.261,4.23,4.23,0,0,1-1.123,1.791,7.872,7.872,0,0,0,1.366-.461.224.224,0,0,1,.274.323Z" transform="translate(-67.944 -42.682)" fill="#fff"/></g></svg>