<svg xmlns="http://www.w3.org/2000/svg" width="17.54" height="17.54" viewBox="0 0 17.54 17.54"><path d="M10-13.56A5.979,5.979,0,0,0,4.02-7.6,5.979,5.979,0,0,0,10-1.64,5.949,5.949,0,0,0,15.96-7.6,5.949,5.949,0,0,0,10-13.56Zm-.02.76A5.207,5.207,0,0,1,15.2-7.6,5.22,5.22,0,0,1,9.98-2.4a5.2,5.2,0,0,1-5.2-5.2A5.19,5.19,0,0,1,9.98-12.8ZM10-16.36A8.874,8.874,0,0,0,4.12-14.1a8.61,8.61,0,0,0-2.9,6.5A8.792,8.792,0,0,0,10,1.18,8.762,8.762,0,0,0,18.76-7.6a8.665,8.665,0,0,0-2.26-5.86A8.618,8.618,0,0,0,10-16.36Zm-.04.8A7.968,7.968,0,0,1,17.98-7.6,7.989,7.989,0,0,1,10,.38,7.989,7.989,0,0,1,2.02-7.6a7.973,7.973,0,0,1,2.02-5.32A7.74,7.74,0,0,1,9.96-15.56Z" transform="translate(-1.22 16.36)" fill="#707070"/></svg>