<svg xmlns="http://www.w3.org/2000/svg" width="36" height="36" viewBox="0 0 36 36">
  <g id="c-sns--link-linkedin" transform="translate(19.943 6)">
    <circle id="bg" cx="18" cy="18" r="18" transform="translate(-19.943 -6)" fill="#024097"/>
    <g id="icon" transform="translate(-11.459 2.499)">
      <path id="パス_1545" data-name="パス 1545" d="M43.42,40.587A2.59,2.59,0,1,1,40.832,38,2.59,2.59,0,0,1,43.42,40.587Z" transform="translate(-38.24 -38)" fill="#fff"/>
      <rect id="長方形_628" data-name="長方形 628" width="4.007" height="12.708" rx="2.004" transform="translate(0.589 6.255)" fill="#fff"/>
      <path id="パス_1546" data-name="パス 1546" d="M76.331,69.094v5.532a.589.589,0,0,1-.589.589H72.817a.589.589,0,0,1-.589-.589V69.266c0-.8.232-3.493-2.091-3.493-1.8,0-2.168,1.851-2.246,2.682v6.183a.589.589,0,0,1-.584.576H64.479a.586.586,0,0,1-.589-.589V63.1a.589.589,0,0,1,.589-.591h2.829a.591.591,0,0,1,.6.591v1a4.024,4.024,0,0,1,3.775-1.777C76.358,62.318,76.331,66.691,76.331,69.094Z" transform="translate(-57.49 -56.252)" fill="#fff"/>
    </g>
  </g>
</svg>
