<svg xmlns="http://www.w3.org/2000/svg" width="36" height="36" viewBox="0 0 36 36"><g transform="translate(20.029 9)"><circle cx="18" cy="18" r="18" transform="translate(-20.029 -9)" fill="#024097"/><path d="M58.624,50.872A3.738,3.738,0,0,0,55.5,48.6a65.893,65.893,0,0,0-13.934,0,3.757,3.757,0,0,0-3.111,2.27,26.416,26.416,0,0,0,0,10.175,3.775,3.775,0,0,0,3.133,2.27,66.264,66.264,0,0,0,13.934,0,3.762,3.762,0,0,0,3.111-2.27,26.416,26.416,0,0,0-.011-10.175ZM46.017,60.01v-8.1l6.6,4.051c-2.223,1.366-4.382,2.7-6.6,4.051Z" transform="translate(-50.584 -47.203)" fill="#fff"/></g></svg>