<svg xmlns="http://www.w3.org/2000/svg" width="36" height="36" viewBox="0 0 36 36"><g transform="translate(-5.82 6)"><circle cx="18" cy="18" r="18" transform="translate(5.82 -6)" fill="#024097"/><path d="M67.033,46.245,66.7,49.076a.535.535,0,0,1-.535.476H63.217v8.4a.38.38,0,0,1-.375.383h-3a.38.38,0,0,1-.375-.385l.016-8.4H57.255a.535.535,0,0,1-.535-.535V46.186a.535.535,0,0,1,.535-.535h2.216V42.905c0-3.176,1.889-4.905,4.656-4.905h2.267a.535.535,0,0,1,.535.535V40.92a.535.535,0,0,1-.535.535H65c-1.5.024-1.788.744-1.788,1.82v2.368h3.294a.535.535,0,0,1,.522.6Z" transform="translate(-37.917 -36.187)" fill="#fff"/></g></svg>