<svg xmlns="http://www.w3.org/2000/svg" width="19.272" height="22.833" viewBox="0 0 19.272 22.833"><g transform="translate(-231.748 -175.929)"><g transform="translate(233.241 175.929)"><path d="M297.207,181.979l-1.147-1.059-3.926-3.624-1.285-1.186a.683.683,0,0,0-.464-.181H281.31a1.664,1.664,0,0,0-1.662,1.662v7.063h1.367v-7.063a.3.3,0,0,1,.294-.295H289.7v5.185a.684.684,0,0,0,.684.684h5.675V197.1a.3.3,0,0,1-.295.294H281.31a.3.3,0,0,1-.294-.294v-2.244h-1.367V197.1a1.664,1.664,0,0,0,1.662,1.662h14.456a1.664,1.664,0,0,0,1.662-1.662V182.482A.683.683,0,0,0,297.207,181.979Z" transform="translate(-279.648 -175.929)" fill="#dc2a2a"/></g><path d="M.728,0H1.912V-2.1H2.7c1.272,0,2.288-.608,2.288-1.96,0-1.4-1.008-1.864-2.32-1.864H.728ZM1.912-3.04V-4.984h.672c.816,0,1.248.232,1.248.92S3.44-3.04,2.624-3.04ZM6.064,0H7.752a2.654,2.654,0,0,0,2.864-2.984A2.638,2.638,0,0,0,7.688-5.928H6.064ZM7.248-.952V-4.976h.368c1.1,0,1.792.544,1.792,1.992S8.72-.952,7.616-.952ZM11.976,0H13.16V-2.4h2.1v-.992h-2.1V-4.936h2.464v-.992H11.976Z" transform="translate(231.02 192.762)" fill="#dc2a2a"/></g></svg>