<svg xmlns="http://www.w3.org/2000/svg" xmlns:xlink="http://www.w3.org/1999/xlink" width="24" height="24" viewBox="0 0 24 24"><defs><clipPath id="a"><rect width="24" height="24" fill="none"/></clipPath></defs><g clip-path="url(#a)"><path d="M12,24A12,12,0,0,1,7.329.943a12,12,0,0,1,9.342,22.114A11.925,11.925,0,0,1,12,24M12,1.091A10.909,10.909,0,1,0,22.909,12,10.921,10.921,0,0,0,12,1.091" transform="translate(0 0)" fill="#1a1a1a"/><path d="M443.351,24a4.332,4.332,0,0,1-1.485-.266,5.234,5.234,0,0,1-1.35-.744,8.351,8.351,0,0,1-2.195-2.623,14.615,14.615,0,0,1-1.436-3.782A19.846,19.846,0,0,1,436.364,12a19.846,19.846,0,0,1,.521-4.585,14.615,14.615,0,0,1,1.436-3.782,8.351,8.351,0,0,1,2.195-2.623,5.234,5.234,0,0,1,1.35-.744,4.282,4.282,0,0,1,2.969,0,5.234,5.234,0,0,1,1.35.744,8.351,8.351,0,0,1,2.195,2.623,14.615,14.615,0,0,1,1.436,3.782A19.845,19.845,0,0,1,450.337,12a19.845,19.845,0,0,1-.521,4.585,14.615,14.615,0,0,1-1.436,3.782,8.351,8.351,0,0,1-2.195,2.623,5.234,5.234,0,0,1-1.35.744,4.332,4.332,0,0,1-1.485.266m0-22.909c-1.515,0-2.963,1.093-4.079,3.077A16.272,16.272,0,0,0,437.455,12a16.272,16.272,0,0,0,1.816,7.832c1.116,1.984,2.564,3.077,4.079,3.077s2.963-1.093,4.079-3.077A16.272,16.272,0,0,0,449.246,12a16.272,16.272,0,0,0-1.816-7.832c-1.116-1.984-2.564-3.077-4.079-3.077" transform="translate(-431.351)" fill="#1a1a1a"/><path d="M413.719,221.816a18.456,18.456,0,0,1-3.85-.4,17.077,17.077,0,0,1-3.481-1.14l.451-.994a17.1,17.1,0,0,0,13.76,0l.451.994a17.077,17.077,0,0,1-3.481,1.14,18.456,18.456,0,0,1-3.85.4" transform="translate(-401.719 -216.761)" fill="#1a1a1a"/><path d="M420.6,1651.48a17.1,17.1,0,0,0-13.76,0l-.451-.994a17.07,17.07,0,0,1,3.481-1.14,18.618,18.618,0,0,1,7.7,0,17.07,17.07,0,0,1,3.481,1.14Z" transform="translate(-401.719 -1630)" fill="#1a1a1a"/><rect width="22.909" height="1.091" transform="translate(0.546 11.454)" fill="#1a1a1a"/><rect width="1.091" height="22.909" transform="translate(11.454 0.546)" fill="#1a1a1a"/></g></svg>