<svg xmlns="http://www.w3.org/2000/svg" width="16.017" height="16.06" viewBox="0 0 16.017 16.06"><rect width="16" height="16" transform="translate(0 0.06)" fill="none"/><path d="M203.917,205.724H192.054a.726.726,0,0,1-.726-.726V193.135a.726.726,0,0,1,.726-.726H200.2a.726.726,0,0,1,0,1.453H192.78v10.411h10.411v-7.577a.726.726,0,0,1,1.453,0V205A.726.726,0,0,1,203.917,205.724Z" transform="translate(-191.187 -189.786)" fill="#767676"/><path d="M289.793,158.943a.726.726,0,0,1-.514-1.24l7.283-7.283h-1.993a.726.726,0,0,1,0-1.453h3.746a.726.726,0,0,1,.514,1.24l-8.523,8.523A.724.724,0,0,1,289.793,158.943Z" transform="translate(-283.025 -148.968)" fill="#767676"/><path d="M-11.306-7.145a.726.726,0,0,1-.726-.726v-3.434a.726.726,0,0,1,.726-.726.726.726,0,0,1,.726.726v3.434A.726.726,0,0,1-11.306-7.145Z" transform="translate(26.596 12.032)" fill="#767676"/></svg>